<svg width="713" height="355" viewBox="0 0 713 355" fill="none" xmlns="http://www.w3.org/2000/svg">
<g opacity="0.5">
<path d="M43.3909 239.321H712.006" stroke="#EAEAEA" stroke-linecap="square" stroke-dasharray="2 2 2 2"/>
<path d="M42.2434 193.332H710.859" stroke="#EAEAEA" stroke-linecap="square" stroke-dasharray="2 2 2 2"/>
<path d="M43.3909 146.32H712.006" stroke="#EAEAEA" stroke-linecap="square" stroke-dasharray="2 2 2 2"/>
<path d="M42.2434 99.3092H710.859" stroke="#EAEAEA" stroke-linecap="square" stroke-dasharray="2 2 2 2"/>
<path d="M43.3909 53.3197H712.006" stroke="#EAEAEA" stroke-linecap="square" stroke-dasharray="2 2 2 2"/>
<path d="M42.2434 6.30824H710.859" stroke="#EAEAEA" stroke-linecap="square" stroke-dasharray="2 2 2 2"/>
</g>
<path d="M42 5V286.5" stroke="#EAEAEA" stroke-linecap="square"/>
<path d="M42 287.5H712.5" stroke="#EAEAEA" stroke-linecap="square"/>
<path fill-rule="evenodd" clip-rule="evenodd" d="M94 249.5C94 247.567 95.567 246 97.5 246V246C99.433 246 101 247.567 101 249.5V283.5C101 285.433 99.433 287 97.5 287V287C95.567 287 94 285.433 94 283.5V249.5Z" fill="#456AEB" fill-opacity="0.3"/>
<path fill-rule="evenodd" clip-rule="evenodd" d="M107 112.447C107 110.514 108.567 108.947 110.5 108.947V108.947C112.433 108.947 114 110.514 114 112.447V284C114 285.933 112.433 287.5 110.5 287.5V287.5C108.567 287.5 107 285.933 107 284V112.447Z" fill="#456AEB"/>
<path fill-rule="evenodd" clip-rule="evenodd" d="M186 210.5C186 208.567 187.567 207 189.5 207V207C191.433 207 193 208.567 193 210.5V283.5C193 285.433 191.433 287 189.5 287V287C187.567 287 186 285.433 186 283.5V210.5Z" fill="#456AEB" fill-opacity="0.3"/>
<path fill-rule="evenodd" clip-rule="evenodd" d="M199 82.5C199 80.567 200.567 79 202.5 79V79C204.433 79 206 80.567 206 82.5V284.5C206 286.433 204.433 288 202.5 288V288C200.567 288 199 286.433 199 284.5V82.5Z" fill="#456AEB"/>
<path fill-rule="evenodd" clip-rule="evenodd" d="M277 163.5C277 161.567 278.567 160 280.5 160V160C282.433 160 284 161.567 284 163.5V283.5C284 285.433 282.433 287 280.5 287V287C278.567 287 277 285.433 277 283.5V163.5Z" fill="#456AEB" fill-opacity="0.3"/>
<path fill-rule="evenodd" clip-rule="evenodd" d="M290 25.5C290 23.567 291.567 22 293.5 22V22C295.433 22 297 23.567 297 25.5V284.5C297 286.433 295.433 288 293.5 288V288C291.567 288 290 286.433 290 284.5V25.5Z" fill="#456AEB"/>
<path fill-rule="evenodd" clip-rule="evenodd" d="M368 182.5C368 180.567 369.567 179 371.5 179V179C373.433 179 375 180.567 375 182.5V283.5C375 285.433 373.433 287 371.5 287V287C369.567 287 368 285.433 368 283.5V182.5Z" fill="#456AEB" fill-opacity="0.3"/>
<path fill-rule="evenodd" clip-rule="evenodd" d="M381 112.5C381 110.567 382.567 109 384.5 109V109C386.433 109 388 110.567 388 112.5V284.053C388 285.986 386.433 287.553 384.5 287.553V287.553C382.567 287.553 381 285.986 381 284.053V112.5Z" fill="#456AEB"/>
<path fill-rule="evenodd" clip-rule="evenodd" d="M460 249.553C460 247.62 461.567 246.053 463.5 246.053V246.053C465.433 246.053 467 247.62 467 249.553V283.553C467 285.486 465.433 287.053 463.5 287.053V287.053C461.567 287.053 460 285.486 460 283.553V249.553Z" fill="#456AEB" fill-opacity="0.3"/>
<path fill-rule="evenodd" clip-rule="evenodd" d="M473 169.5C473 167.567 474.567 166 476.5 166V166C478.433 166 480 167.567 480 169.5V284.5C480 286.433 478.433 288 476.5 288V288C474.567 288 473 286.433 473 284.5V169.5Z" fill="#456AEB"/>
<path fill-rule="evenodd" clip-rule="evenodd" d="M550 206.5C550 204.567 551.567 203 553.5 203V203C555.433 203 557 204.567 557 206.5V283.5C557 285.433 555.433 287 553.5 287V287C551.567 287 550 285.433 550 283.5V206.5Z" fill="#456AEB" fill-opacity="0.3"/>
<path fill-rule="evenodd" clip-rule="evenodd" d="M563 112.5C563 110.567 564.567 109 566.5 109V109C568.433 109 570 110.567 570 112.5V284.053C570 285.986 568.433 287.553 566.5 287.553V287.553C564.567 287.553 563 285.986 563 284.053V112.5Z" fill="#456AEB"/>
<path fill-rule="evenodd" clip-rule="evenodd" d="M630 269.5C630 267.567 631.567 266 633.5 266V266C635.433 266 637 267.567 637 269.5V283.5C637 285.433 635.433 287 633.5 287V287C631.567 287 630 285.433 630 283.5V269.5Z" fill="#456AEB" fill-opacity="0.3"/>
<path fill-rule="evenodd" clip-rule="evenodd" d="M643 86.5C643 84.567 644.567 83 646.5 83V83C648.433 83 650 84.567 650 86.5V284.5C650 286.433 648.433 288 646.5 288V288C644.567 288 643 286.433 643 284.5V86.5Z" fill="#456AEB"/>
<path d="M97.1079 298.691V306.008C97.1079 306.882 97.0469 307.534 96.9248 307.964C96.8027 308.452 96.5952 308.865 96.3022 309.202C95.731 309.871 94.9741 310.205 94.0317 310.205C93.3188 310.205 92.6523 310.02 92.0322 309.648L92.8672 308.191C93.2822 308.469 93.6704 308.608 94.0317 308.608C94.5396 308.608 94.8911 308.416 95.0864 308.03C95.2915 307.644 95.394 306.97 95.394 306.008V298.691H97.1079ZM104.762 302.866H106.417V310H104.762V309.253C104.083 309.888 103.353 310.205 102.572 310.205C101.585 310.205 100.77 309.849 100.125 309.136C99.4858 308.408 99.166 307.5 99.166 306.411C99.166 305.342 99.4858 304.451 100.125 303.738C100.765 303.025 101.566 302.668 102.528 302.668C103.358 302.668 104.103 303.01 104.762 303.694V302.866ZM100.851 306.411C100.851 307.095 101.034 307.651 101.4 308.081C101.776 308.516 102.25 308.733 102.821 308.733C103.431 308.733 103.924 308.523 104.3 308.103C104.676 307.668 104.864 307.117 104.864 306.448C104.864 305.779 104.676 305.227 104.3 304.792C103.924 304.368 103.436 304.155 102.835 304.155C102.269 304.155 101.795 304.37 101.415 304.8C101.039 305.234 100.851 305.771 100.851 306.411ZM108.497 302.866H110.152V303.525C110.729 302.954 111.378 302.668 112.101 302.668C112.931 302.668 113.578 302.93 114.042 303.452C114.442 303.896 114.642 304.622 114.642 305.627V310H112.987V306.016C112.987 305.312 112.889 304.827 112.694 304.558C112.503 304.285 112.157 304.148 111.654 304.148C111.107 304.148 110.719 304.329 110.489 304.69C110.265 305.046 110.152 305.669 110.152 306.558V310H108.497V302.866Z" fill="#878F9B"/>
<path d="M190.587 300.295H186.647V303.013H190.448V304.617H186.647V310H184.94V298.691H190.587V300.295ZM198.651 306.821H193.539C193.583 307.407 193.773 307.874 194.11 308.22C194.447 308.562 194.879 308.733 195.407 308.733C195.817 308.733 196.156 308.635 196.425 308.44C196.688 308.245 196.989 307.883 197.326 307.356L198.717 308.132C198.502 308.499 198.275 308.813 198.036 309.077C197.797 309.336 197.541 309.551 197.267 309.722C196.994 309.888 196.698 310.01 196.381 310.088C196.063 310.166 195.719 310.205 195.348 310.205C194.284 310.205 193.429 309.863 192.785 309.18C192.14 308.491 191.818 307.578 191.818 306.44C191.818 305.312 192.13 304.399 192.755 303.701C193.385 303.013 194.22 302.668 195.26 302.668C196.31 302.668 197.14 303.003 197.75 303.672C198.356 304.336 198.659 305.256 198.659 306.433L198.651 306.821ZM196.959 305.474C196.73 304.595 196.176 304.155 195.297 304.155C195.097 304.155 194.909 304.187 194.733 304.25C194.557 304.309 194.396 304.397 194.25 304.514C194.108 304.626 193.986 304.763 193.883 304.924C193.781 305.085 193.703 305.269 193.649 305.474H196.959ZM202.108 297.629V303.694C202.768 303.01 203.515 302.668 204.35 302.668C205.312 302.668 206.112 303.027 206.752 303.745C207.392 304.458 207.711 305.347 207.711 306.411C207.711 307.51 207.389 308.418 206.745 309.136C206.105 309.849 205.297 310.205 204.32 310.205C203.495 310.205 202.758 309.888 202.108 309.253V310H200.46V297.629H202.108ZM206.027 306.484C206.027 305.801 205.841 305.244 205.47 304.814C205.094 304.375 204.623 304.155 204.057 304.155C203.451 304.155 202.958 304.368 202.577 304.792C202.201 305.212 202.013 305.759 202.013 306.433C202.013 307.126 202.199 307.681 202.57 308.096C202.941 308.521 203.429 308.733 204.035 308.733C204.606 308.733 205.08 308.521 205.456 308.096C205.836 307.666 206.027 307.129 206.027 306.484Z" fill="#878F9B"/>
<path d="M373.637 307.253H368.795L367.536 310H365.697L371.293 297.981L376.691 310H374.823L373.637 307.253ZM372.941 305.649L371.264 301.804L369.506 305.649H372.941ZM379.445 313.882H377.797V302.866H379.445V303.643C380.094 302.993 380.832 302.668 381.657 302.668C382.638 302.668 383.446 303.03 384.081 303.752C384.726 304.47 385.048 305.376 385.048 306.47C385.048 307.539 384.728 308.43 384.088 309.143C383.454 309.851 382.653 310.205 381.686 310.205C380.851 310.205 380.104 309.871 379.445 309.202V313.882ZM383.363 306.477C383.363 305.793 383.178 305.237 382.807 304.807C382.431 304.373 381.957 304.155 381.386 304.155C380.78 304.155 380.29 304.365 379.914 304.785C379.538 305.205 379.35 305.757 379.35 306.44C379.35 307.109 379.538 307.661 379.914 308.096C380.285 308.521 380.773 308.733 381.378 308.733C381.95 308.733 382.421 308.518 382.792 308.088C383.173 307.659 383.363 307.122 383.363 306.477ZM386.791 302.866H388.439V303.503C388.742 303.186 389.01 302.969 389.245 302.852C389.484 302.729 389.767 302.668 390.094 302.668C390.529 302.668 390.983 302.81 391.457 303.093L390.702 304.602C390.39 304.377 390.084 304.265 389.787 304.265C388.888 304.265 388.439 304.944 388.439 306.301V310H386.791V302.866Z" fill="#878F9B"/>
<path d="M553.518 298.691V306.008C553.518 306.882 553.457 307.534 553.335 307.964C553.213 308.452 553.005 308.865 552.712 309.202C552.141 309.871 551.384 310.205 550.442 310.205C549.729 310.205 549.062 310.02 548.442 309.648L549.277 308.191C549.692 308.469 550.081 308.608 550.442 308.608C550.95 308.608 551.301 308.416 551.497 308.03C551.702 307.644 551.804 306.97 551.804 306.008V298.691H553.518ZM557.561 302.866V306.96C557.561 308.142 558.027 308.733 558.96 308.733C559.893 308.733 560.359 308.142 560.359 306.96V302.866H562.007V306.997C562.007 307.568 561.936 308.062 561.794 308.477C561.658 308.848 561.421 309.182 561.084 309.48C560.527 309.963 559.819 310.205 558.96 310.205C558.105 310.205 557.4 309.963 556.843 309.48C556.501 309.182 556.26 308.848 556.118 308.477C555.981 308.145 555.913 307.651 555.913 306.997V302.866H557.561ZM564.087 302.866H565.742V303.525C566.318 302.954 566.968 302.668 567.69 302.668C568.521 302.668 569.167 302.93 569.631 303.452C570.032 303.896 570.232 304.622 570.232 305.627V310H568.577V306.016C568.577 305.312 568.479 304.827 568.284 304.558C568.093 304.285 567.747 304.148 567.244 304.148C566.697 304.148 566.309 304.329 566.079 304.69C565.854 305.046 565.742 305.669 565.742 306.558V310H564.087V302.866Z" fill="#878F9B"/>
<path d="M273.943 310L276.323 297.842L280.205 306.631L284.226 297.842L286.365 310H284.614L283.523 303.174L280.176 310.52L276.924 303.167L275.708 310H273.943ZM293.711 302.866H295.366V310H293.711V309.253C293.032 309.888 292.302 310.205 291.521 310.205C290.535 310.205 289.719 309.849 289.075 309.136C288.435 308.408 288.115 307.5 288.115 306.411C288.115 305.342 288.435 304.451 289.075 303.738C289.714 303.025 290.515 302.668 291.477 302.668C292.307 302.668 293.052 303.01 293.711 303.694V302.866ZM289.8 306.411C289.8 307.095 289.983 307.651 290.349 308.081C290.725 308.516 291.199 308.733 291.77 308.733C292.38 308.733 292.874 308.523 293.25 308.103C293.625 307.668 293.813 307.117 293.813 306.448C293.813 305.779 293.625 305.227 293.25 304.792C292.874 304.368 292.385 304.155 291.785 304.155C291.218 304.155 290.745 304.37 290.364 304.8C289.988 305.234 289.8 305.771 289.8 306.411ZM297.446 302.866H299.094V303.503C299.397 303.186 299.666 302.969 299.9 302.852C300.139 302.729 300.422 302.668 300.75 302.668C301.184 302.668 301.638 302.81 302.112 303.093L301.357 304.602C301.045 304.377 300.74 304.265 300.442 304.265C299.543 304.265 299.094 304.944 299.094 306.301V310H297.446V302.866Z" fill="#878F9B"/>
<path d="M455.103 310L457.483 297.842L461.365 306.631L465.386 297.842L467.524 310H465.774L464.683 303.174L461.335 310.52L458.083 303.167L456.868 310H455.103ZM474.871 302.866H476.526V310H474.871V309.253C474.192 309.888 473.462 310.205 472.681 310.205C471.694 310.205 470.879 309.849 470.234 309.136C469.595 308.408 469.275 307.5 469.275 306.411C469.275 305.342 469.595 304.451 470.234 303.738C470.874 303.025 471.675 302.668 472.637 302.668C473.467 302.668 474.211 303.01 474.871 303.694V302.866ZM470.959 306.411C470.959 307.095 471.143 307.651 471.509 308.081C471.885 308.516 472.358 308.733 472.93 308.733C473.54 308.733 474.033 308.523 474.409 308.103C474.785 307.668 474.973 307.117 474.973 306.448C474.973 305.779 474.785 305.227 474.409 304.792C474.033 304.368 473.545 304.155 472.944 304.155C472.378 304.155 471.904 304.37 471.523 304.8C471.147 305.234 470.959 305.771 470.959 306.411ZM480.986 308.674L477.778 302.866H479.69L481.873 306.968L483.909 302.866H485.769L480.085 313.882H478.203L480.986 308.674Z" fill="#878F9B"/>
<path d="M633.87 307.253H629.028L627.769 310H625.93L631.526 297.981L636.924 310H635.056L633.87 307.253ZM633.174 305.649L631.497 301.804L629.739 305.649H633.174ZM639.663 302.866V306.96C639.663 308.142 640.129 308.733 641.062 308.733C641.995 308.733 642.461 308.142 642.461 306.96V302.866H644.109V306.997C644.109 307.568 644.038 308.062 643.896 308.477C643.76 308.848 643.523 309.182 643.186 309.48C642.629 309.963 641.921 310.205 641.062 310.205C640.208 310.205 639.502 309.963 638.945 309.48C638.604 309.182 638.362 308.848 638.22 308.477C638.083 308.145 638.015 307.651 638.015 306.997V302.866H639.663ZM653.088 309.832C653.088 310.168 653.076 310.464 653.052 310.718C653.032 310.977 653.003 311.204 652.964 311.399C652.847 311.936 652.617 312.397 652.275 312.783C651.631 313.525 650.745 313.896 649.617 313.896C648.665 313.896 647.881 313.64 647.266 313.127C646.631 312.6 646.265 311.87 646.167 310.938H647.822C647.886 311.289 647.991 311.56 648.137 311.75C648.479 312.195 648.977 312.417 649.631 312.417C650.837 312.417 651.44 311.677 651.44 310.198V309.202C650.786 309.871 650.032 310.205 649.177 310.205C648.206 310.205 647.41 309.854 646.79 309.15C646.165 308.438 645.852 307.546 645.852 306.477C645.852 305.437 646.143 304.553 646.724 303.826C647.349 303.054 648.174 302.668 649.199 302.668C650.098 302.668 650.845 303.003 651.44 303.672V302.866H653.088V309.832ZM651.506 306.448C651.506 305.754 651.321 305.2 650.95 304.785C650.574 304.36 650.093 304.148 649.507 304.148C648.882 304.148 648.389 304.38 648.027 304.844C647.7 305.259 647.537 305.796 647.537 306.455C647.537 307.104 647.7 307.637 648.027 308.052C648.384 308.506 648.877 308.733 649.507 308.733C650.137 308.733 650.635 308.503 651.001 308.044C651.338 307.629 651.506 307.097 651.506 306.448Z" fill="#878F9B"/>
<path d="M12.771 239.396H16.9824V241H9.38721L13.313 236.247C13.6987 235.773 14.021 235.363 14.2798 235.016C14.5435 234.669 14.7437 234.379 14.8804 234.145C15.1587 233.686 15.2979 233.273 15.2979 232.907C15.2979 232.379 15.1123 231.938 14.7412 231.581C14.3701 231.225 13.9111 231.046 13.3643 231.046C12.2217 231.046 11.5674 231.723 11.4014 233.075H9.70215C9.97559 230.692 11.1792 229.501 13.313 229.501C14.3433 229.501 15.2075 229.828 15.9058 230.482C16.6089 231.137 16.9604 231.947 16.9604 232.914C16.9604 233.529 16.7969 234.132 16.4697 234.723C16.3037 235.031 16.0596 235.397 15.7373 235.822C15.4199 236.242 15.0171 236.74 14.5288 237.316L12.771 239.396ZM26.1597 231.288H22.6733L22.1167 233.163C22.1997 233.153 22.2778 233.146 22.3511 233.141C22.4292 233.136 22.5 233.134 22.5635 233.134C23.6621 233.134 24.563 233.505 25.2661 234.247C25.9741 234.984 26.3281 235.929 26.3281 237.082C26.3281 238.273 25.9277 239.254 25.127 240.026C24.3262 240.797 23.3179 241.183 22.1021 241.183C20.603 241.183 19.4214 240.48 18.5571 239.074L19.8462 237.982C20.2026 238.588 20.5615 239.015 20.9229 239.264C21.2842 239.508 21.7261 239.63 22.2485 239.63C22.9321 239.63 23.5059 239.391 23.9697 238.913C24.4336 238.419 24.6655 237.821 24.6655 237.118C24.6655 236.396 24.436 235.805 23.9771 235.346C23.5181 234.872 22.9443 234.635 22.2559 234.635C21.4893 234.635 20.8276 234.97 20.271 235.639H19.707L21.4868 229.691H26.1597V231.288ZM30.2173 228.629V236.173L32.5391 233.866H34.751L31.6528 236.862L34.978 241H32.8394L30.481 237.99L30.2173 238.253V241H28.5693V228.629H30.2173Z" fill="#878F9B"/>
<path d="M26.3794 280.272C26.3794 278.471 26.7993 277.033 27.6392 275.958C28.3911 274.987 29.3018 274.501 30.3711 274.501C31.4404 274.501 32.3511 274.987 33.103 275.958C33.9429 277.033 34.3628 278.495 34.3628 280.346C34.3628 282.191 33.9429 283.651 33.103 284.726C32.3511 285.697 31.4429 286.183 30.3784 286.183C29.314 286.183 28.4009 285.697 27.6392 284.726C26.7993 283.651 26.3794 282.167 26.3794 280.272ZM28.0566 280.28C28.0566 281.535 28.2739 282.577 28.7085 283.407C29.1431 284.223 29.6973 284.63 30.3711 284.63C31.04 284.63 31.5942 284.223 32.0337 283.407C32.4731 282.597 32.6929 281.574 32.6929 280.338C32.6929 279.103 32.4731 278.078 32.0337 277.262C31.5942 276.452 31.04 276.046 30.3711 276.046C29.707 276.046 29.1553 276.452 28.7158 277.262C28.2764 278.068 28.0566 279.074 28.0566 280.28Z" fill="#878F9B"/>
<path d="M16.9019 186.288H13.4155L12.8589 188.163C12.9419 188.153 13.02 188.146 13.0933 188.141C13.1714 188.136 13.2422 188.134 13.3057 188.134C14.4043 188.134 15.3052 188.505 16.0083 189.247C16.7163 189.984 17.0703 190.929 17.0703 192.082C17.0703 193.273 16.6699 194.254 15.8691 195.026C15.0684 195.797 14.0601 196.183 12.8442 196.183C11.3452 196.183 10.1636 195.48 9.29932 194.074L10.5884 192.982C10.9448 193.588 11.3037 194.015 11.665 194.264C12.0264 194.508 12.4683 194.63 12.9907 194.63C13.6743 194.63 14.248 194.391 14.7119 193.913C15.1758 193.419 15.4077 192.821 15.4077 192.118C15.4077 191.396 15.1782 190.805 14.7192 190.346C14.2603 189.872 13.6865 189.635 12.998 189.635C12.2314 189.635 11.5698 189.97 11.0132 190.639H10.4492L12.229 184.691H16.9019V186.288ZM18.9087 190.272C18.9087 188.471 19.3286 187.033 20.1685 185.958C20.9204 184.987 21.8311 184.501 22.9004 184.501C23.9697 184.501 24.8804 184.987 25.6323 185.958C26.4722 187.033 26.8921 188.495 26.8921 190.346C26.8921 192.191 26.4722 193.651 25.6323 194.726C24.8804 195.697 23.9722 196.183 22.9077 196.183C21.8433 196.183 20.9302 195.697 20.1685 194.726C19.3286 193.651 18.9087 192.167 18.9087 190.272ZM20.5859 190.28C20.5859 191.535 20.8032 192.577 21.2378 193.407C21.6724 194.223 22.2266 194.63 22.9004 194.63C23.5693 194.63 24.1235 194.223 24.563 193.407C25.0024 192.597 25.2222 191.574 25.2222 190.338C25.2222 189.103 25.0024 188.078 24.563 187.262C24.1235 186.452 23.5693 186.046 22.9004 186.046C22.2363 186.046 21.6846 186.452 21.2451 187.262C20.8057 188.068 20.5859 189.074 20.5859 190.28ZM30.2173 183.629V191.173L32.5391 188.866H34.751L31.6528 191.862L34.978 196H32.8394L30.481 192.99L30.2173 193.253V196H28.5693V183.629H30.2173Z" fill="#878F9B"/>
<path d="M15.3711 141.288H9.79004V139.691H18.2202L11.0864 151.388L9.73145 150.531L15.3711 141.288ZM26.1597 141.288H22.6733L22.1167 143.163C22.1997 143.153 22.2778 143.146 22.3511 143.141C22.4292 143.136 22.5 143.134 22.5635 143.134C23.6621 143.134 24.563 143.505 25.2661 144.247C25.9741 144.984 26.3281 145.929 26.3281 147.082C26.3281 148.273 25.9277 149.254 25.127 150.026C24.3262 150.797 23.3179 151.183 22.1021 151.183C20.603 151.183 19.4214 150.48 18.5571 149.074L19.8462 147.982C20.2026 148.588 20.5615 149.015 20.9229 149.264C21.2842 149.508 21.7261 149.63 22.2485 149.63C22.9321 149.63 23.5059 149.391 23.9697 148.913C24.4336 148.419 24.6655 147.821 24.6655 147.118C24.6655 146.396 24.436 145.805 23.9771 145.346C23.5181 144.872 22.9443 144.635 22.2559 144.635C21.4893 144.635 20.8276 144.97 20.271 145.639H19.707L21.4868 139.691H26.1597V141.288ZM30.2173 138.629V146.173L32.5391 143.866H34.751L31.6528 146.862L34.978 151H32.8394L30.481 147.99L30.2173 148.253V151H28.5693V138.629H30.2173Z" fill="#878F9B"/>
<path d="M4.729 97.2881H2.77344L3.71094 95.6914H6.43555V107H4.729V97.2881ZM9.65088 101.272C9.65088 99.4707 10.0708 98.0327 10.9106 96.9585C11.6626 95.9868 12.5732 95.501 13.6426 95.501C14.7119 95.501 15.6226 95.9868 16.3745 96.9585C17.2144 98.0327 17.6343 99.4951 17.6343 101.346C17.6343 103.191 17.2144 104.651 16.3745 105.726C15.6226 106.697 14.7144 107.183 13.6499 107.183C12.5854 107.183 11.6724 106.697 10.9106 105.726C10.0708 104.651 9.65088 103.167 9.65088 101.272ZM11.3281 101.28C11.3281 102.535 11.5454 103.577 11.98 104.407C12.4146 105.223 12.9688 105.63 13.6426 105.63C14.3115 105.63 14.8657 105.223 15.3052 104.407C15.7446 103.597 15.9644 102.574 15.9644 101.338C15.9644 100.103 15.7446 99.0776 15.3052 98.2622C14.8657 97.4517 14.3115 97.0464 13.6426 97.0464C12.9785 97.0464 12.4268 97.4517 11.9873 98.2622C11.5479 99.0679 11.3281 100.074 11.3281 101.28ZM18.9087 101.272C18.9087 99.4707 19.3286 98.0327 20.1685 96.9585C20.9204 95.9868 21.8311 95.501 22.9004 95.501C23.9697 95.501 24.8804 95.9868 25.6323 96.9585C26.4722 98.0327 26.8921 99.4951 26.8921 101.346C26.8921 103.191 26.4722 104.651 25.6323 105.726C24.8804 106.697 23.9722 107.183 22.9077 107.183C21.8433 107.183 20.9302 106.697 20.1685 105.726C19.3286 104.651 18.9087 103.167 18.9087 101.272ZM20.5859 101.28C20.5859 102.535 20.8032 103.577 21.2378 104.407C21.6724 105.223 22.2266 105.63 22.9004 105.63C23.5693 105.63 24.1235 105.223 24.563 104.407C25.0024 103.597 25.2222 102.574 25.2222 101.338C25.2222 100.103 25.0024 99.0776 24.563 98.2622C24.1235 97.4517 23.5693 97.0464 22.9004 97.0464C22.2363 97.0464 21.6846 97.4517 21.2451 98.2622C20.8057 99.0679 20.5859 100.074 20.5859 101.28ZM30.2173 94.6294V102.173L32.5391 99.8662H34.751L31.6528 102.862L34.978 107H32.8394L30.481 103.99L30.2173 104.253V107H28.5693V94.6294H30.2173Z" fill="#878F9B"/>
<path d="M5.00732 52.2881H3.05176L3.98926 50.6914H6.71387V62H5.00732V52.2881ZM12.771 60.396H16.9824V62H9.38721L13.313 57.2466C13.6987 56.7729 14.021 56.3628 14.2798 56.0161C14.5435 55.6694 14.7437 55.3789 14.8804 55.1445C15.1587 54.6855 15.2979 54.2729 15.2979 53.9067C15.2979 53.3794 15.1123 52.9375 14.7412 52.5811C14.3701 52.2246 13.9111 52.0464 13.3643 52.0464C12.2217 52.0464 11.5674 52.7227 11.4014 54.0752H9.70215C9.97559 51.6924 11.1792 50.501 13.313 50.501C14.3433 50.501 15.2075 50.8281 15.9058 51.4824C16.6089 52.1367 16.9604 52.9473 16.9604 53.9141C16.9604 54.5293 16.7969 55.1323 16.4697 55.7231C16.3037 56.0308 16.0596 56.397 15.7373 56.8218C15.4199 57.2417 15.0171 57.7397 14.5288 58.3159L12.771 60.396ZM26.1597 52.2881H22.6733L22.1167 54.1631C22.1997 54.1533 22.2778 54.146 22.3511 54.1411C22.4292 54.1362 22.5 54.1338 22.5635 54.1338C23.6621 54.1338 24.563 54.5049 25.2661 55.2471C25.9741 55.9844 26.3281 56.9292 26.3281 58.0815C26.3281 59.2729 25.9277 60.2544 25.127 61.0259C24.3262 61.7974 23.3179 62.1831 22.1021 62.1831C20.603 62.1831 19.4214 61.48 18.5571 60.0737L19.8462 58.9824C20.2026 59.5879 20.5615 60.0151 20.9229 60.2642C21.2842 60.5083 21.7261 60.6304 22.2485 60.6304C22.9321 60.6304 23.5059 60.3911 23.9697 59.9126C24.4336 59.4194 24.6655 58.8213 24.6655 58.1182C24.6655 57.3955 24.436 56.8047 23.9771 56.3457C23.5181 55.8721 22.9443 55.6353 22.2559 55.6353C21.4893 55.6353 20.8276 55.9697 20.271 56.6387H19.707L21.4868 50.6914H26.1597V52.2881ZM30.2173 49.6294V57.1733L32.5391 54.8662H34.751L31.6528 57.8618L34.978 62H32.8394L30.481 58.9897L30.2173 59.2534V62H28.5693V49.6294H30.2173Z" fill="#878F9B"/>
<path d="M5.00732 7.28809H3.05176L3.98926 5.69141H6.71387V17H5.00732V7.28809ZM16.9019 7.28809H13.4155L12.8589 9.16309C12.9419 9.15332 13.02 9.146 13.0933 9.14111C13.1714 9.13623 13.2422 9.13379 13.3057 9.13379C14.4043 9.13379 15.3052 9.50488 16.0083 10.2471C16.7163 10.9844 17.0703 11.9292 17.0703 13.0815C17.0703 14.2729 16.6699 15.2544 15.8691 16.0259C15.0684 16.7974 14.0601 17.1831 12.8442 17.1831C11.3452 17.1831 10.1636 16.48 9.29932 15.0737L10.5884 13.9824C10.9448 14.5879 11.3037 15.0151 11.665 15.2642C12.0264 15.5083 12.4683 15.6304 12.9907 15.6304C13.6743 15.6304 14.248 15.3911 14.7119 14.9126C15.1758 14.4194 15.4077 13.8213 15.4077 13.1182C15.4077 12.3955 15.1782 11.8047 14.7192 11.3457C14.2603 10.8721 13.6865 10.6353 12.998 10.6353C12.2314 10.6353 11.5698 10.9697 11.0132 11.6387H10.4492L12.229 5.69141H16.9019V7.28809ZM18.9087 11.2725C18.9087 9.4707 19.3286 8.03271 20.1685 6.9585C20.9204 5.98682 21.8311 5.50098 22.9004 5.50098C23.9697 5.50098 24.8804 5.98682 25.6323 6.9585C26.4722 8.03271 26.8921 9.49512 26.8921 11.3457C26.8921 13.1914 26.4722 14.6514 25.6323 15.7256C24.8804 16.6973 23.9722 17.1831 22.9077 17.1831C21.8433 17.1831 20.9302 16.6973 20.1685 15.7256C19.3286 14.6514 18.9087 13.167 18.9087 11.2725ZM20.5859 11.2798C20.5859 12.5347 20.8032 13.5771 21.2378 14.4072C21.6724 15.2227 22.2266 15.6304 22.9004 15.6304C23.5693 15.6304 24.1235 15.2227 24.563 14.4072C25.0024 13.5967 25.2222 12.5737 25.2222 11.3384C25.2222 10.103 25.0024 9.07764 24.563 8.26221C24.1235 7.45166 23.5693 7.04639 22.9004 7.04639C22.2363 7.04639 21.6846 7.45166 21.2451 8.26221C20.8057 9.06787 20.5859 10.0737 20.5859 11.2798ZM30.2173 4.62939V12.1733L32.5391 9.86621H34.751L31.6528 12.8618L34.978 17H32.8394L30.481 13.9897L30.2173 14.2534V17H28.5693V4.62939H30.2173Z" fill="#878F9B"/>
<path d="M259.475 340.295V350H257.769V340.295H255.168V338.691H262.068V340.295H259.475ZM262.266 346.382C262.266 345.352 262.634 344.475 263.372 343.752C264.109 343.03 265.007 342.668 266.067 342.668C267.131 342.668 268.035 343.032 268.777 343.76C269.509 344.487 269.875 345.381 269.875 346.44C269.875 347.51 269.507 348.406 268.77 349.128C268.027 349.846 267.117 350.205 266.038 350.205C264.968 350.205 264.072 349.839 263.35 349.106C262.627 348.384 262.266 347.476 262.266 346.382ZM263.95 346.411C263.95 347.124 264.141 347.688 264.521 348.103C264.912 348.523 265.427 348.733 266.067 348.733C266.711 348.733 267.227 348.525 267.612 348.11C267.998 347.695 268.191 347.141 268.191 346.448C268.191 345.754 267.998 345.2 267.612 344.785C267.222 344.365 266.707 344.155 266.067 344.155C265.437 344.155 264.927 344.365 264.536 344.785C264.146 345.205 263.95 345.747 263.95 346.411ZM273.413 344.404V350H271.765V344.404H271.062V342.866H271.765V340.251H273.413V342.866H274.695V344.404H273.413ZM281.206 342.866H282.861V350H281.206V349.253C280.527 349.888 279.797 350.205 279.016 350.205C278.03 350.205 277.214 349.849 276.57 349.136C275.93 348.408 275.61 347.5 275.61 346.411C275.61 345.342 275.93 344.451 276.57 343.738C277.209 343.025 278.01 342.668 278.972 342.668C279.802 342.668 280.547 343.01 281.206 343.694V342.866ZM277.295 346.411C277.295 347.095 277.478 347.651 277.844 348.081C278.22 348.516 278.694 348.733 279.265 348.733C279.875 348.733 280.369 348.523 280.745 348.103C281.121 347.668 281.309 347.117 281.309 346.448C281.309 345.779 281.121 345.227 280.745 344.792C280.369 344.368 279.88 344.155 279.28 344.155C278.713 344.155 278.24 344.37 277.859 344.8C277.483 345.234 277.295 345.771 277.295 346.411ZM286.589 337.629V350H284.941V337.629H286.589ZM294.192 338.691L297.319 346.528L300.491 338.691H302.358L297.283 350.85L292.324 338.691H294.192ZM305.251 342.866V350H303.604V342.866H305.251ZM303.354 339.9C303.354 339.612 303.459 339.363 303.669 339.153C303.879 338.943 304.131 338.838 304.424 338.838C304.722 338.838 304.976 338.943 305.186 339.153C305.396 339.358 305.5 339.609 305.5 339.907C305.5 340.205 305.396 340.459 305.186 340.669C304.98 340.879 304.729 340.984 304.431 340.984C304.133 340.984 303.879 340.879 303.669 340.669C303.459 340.459 303.354 340.203 303.354 339.9ZM311.484 344.082L310.122 344.807C309.907 344.368 309.641 344.148 309.324 344.148C309.172 344.148 309.043 344.199 308.936 344.302C308.828 344.399 308.774 344.526 308.774 344.683C308.774 344.956 309.092 345.227 309.727 345.496C310.601 345.872 311.189 346.218 311.492 346.536C311.794 346.853 311.946 347.28 311.946 347.817C311.946 348.506 311.692 349.082 311.184 349.546C310.691 349.985 310.095 350.205 309.397 350.205C308.201 350.205 307.354 349.622 306.855 348.455L308.262 347.803C308.457 348.145 308.606 348.362 308.708 348.455C308.909 348.64 309.148 348.733 309.426 348.733C309.983 348.733 310.261 348.479 310.261 347.971C310.261 347.678 310.046 347.405 309.617 347.151C309.451 347.068 309.285 346.987 309.119 346.909C308.953 346.831 308.784 346.75 308.613 346.667C308.135 346.433 307.798 346.199 307.603 345.964C307.354 345.667 307.229 345.283 307.229 344.814C307.229 344.194 307.441 343.682 307.866 343.276C308.301 342.871 308.828 342.668 309.448 342.668C310.361 342.668 311.04 343.14 311.484 344.082ZM315.081 342.866V350H313.433V342.866H315.081ZM313.184 339.9C313.184 339.612 313.289 339.363 313.499 339.153C313.708 338.943 313.96 338.838 314.253 338.838C314.551 338.838 314.805 338.943 315.015 339.153C315.225 339.358 315.33 339.609 315.33 339.907C315.33 340.205 315.225 340.459 315.015 340.669C314.81 340.879 314.558 340.984 314.26 340.984C313.962 340.984 313.708 340.879 313.499 340.669C313.289 340.459 313.184 340.203 313.184 339.9ZM318.867 344.404V350H317.219V344.404H316.516V342.866H317.219V340.251H318.867V342.866H320.149V344.404H318.867ZM321.035 346.382C321.035 345.352 321.404 344.475 322.141 343.752C322.878 343.03 323.777 342.668 324.836 342.668C325.901 342.668 326.804 343.032 327.546 343.76C328.279 344.487 328.645 345.381 328.645 346.44C328.645 347.51 328.276 348.406 327.539 349.128C326.797 349.846 325.886 350.205 324.807 350.205C323.738 350.205 322.842 349.839 322.119 349.106C321.396 348.384 321.035 347.476 321.035 346.382ZM322.72 346.411C322.72 347.124 322.91 347.688 323.291 348.103C323.682 348.523 324.197 348.733 324.836 348.733C325.481 348.733 325.996 348.525 326.382 348.11C326.768 347.695 326.96 347.141 326.96 346.448C326.96 345.754 326.768 345.2 326.382 344.785C325.991 344.365 325.476 344.155 324.836 344.155C324.207 344.155 323.696 344.365 323.306 344.785C322.915 345.205 322.72 345.747 322.72 346.411ZM330.396 342.866H332.043V343.503C332.346 343.186 332.615 342.969 332.849 342.852C333.088 342.729 333.372 342.668 333.699 342.668C334.133 342.668 334.587 342.81 335.061 343.093L334.307 344.602C333.994 344.377 333.689 344.265 333.391 344.265C332.493 344.265 332.043 344.944 332.043 346.301V350H330.396V342.866ZM340.151 344.082L338.789 344.807C338.574 344.368 338.308 344.148 337.991 344.148C337.839 344.148 337.71 344.199 337.603 344.302C337.495 344.399 337.441 344.526 337.441 344.683C337.441 344.956 337.759 345.227 338.394 345.496C339.268 345.872 339.856 346.218 340.159 346.536C340.461 346.853 340.613 347.28 340.613 347.817C340.613 348.506 340.359 349.082 339.851 349.546C339.358 349.985 338.762 350.205 338.064 350.205C336.868 350.205 336.021 349.622 335.522 348.455L336.929 347.803C337.124 348.145 337.273 348.362 337.375 348.455C337.576 348.64 337.815 348.733 338.093 348.733C338.65 348.733 338.928 348.479 338.928 347.971C338.928 347.678 338.713 347.405 338.284 347.151C338.118 347.068 337.952 346.987 337.786 346.909C337.62 346.831 337.451 346.75 337.28 346.667C336.802 346.433 336.465 346.199 336.27 345.964C336.021 345.667 335.896 345.283 335.896 344.814C335.896 344.194 336.108 343.682 336.533 343.276C336.968 342.871 337.495 342.668 338.115 342.668C339.028 342.668 339.707 343.14 340.151 344.082Z" fill="#878F9B"/>
<path fill-rule="evenodd" clip-rule="evenodd" d="M242 349.912C244.761 349.912 247 347.654 247 344.868C247 342.083 244.761 339.824 242 339.824C239.239 339.824 237 342.083 237 344.868C237 347.654 239.239 349.912 242 349.912Z" fill="#456AEB"/>
<path d="M386.062 338.691V345.503C386.062 346.475 386.22 347.185 386.538 347.634C387.011 348.284 387.678 348.608 388.537 348.608C389.401 348.608 390.07 348.284 390.544 347.634C390.861 347.2 391.02 346.489 391.02 345.503V338.691H392.727V345.972C392.727 347.163 392.355 348.145 391.613 348.916C390.778 349.775 389.753 350.205 388.537 350.205C387.321 350.205 386.298 349.775 385.468 348.916C384.726 348.145 384.355 347.163 384.355 345.972V338.691H386.062ZM395.231 342.866H396.887V343.525C397.463 342.954 398.112 342.668 398.835 342.668C399.665 342.668 400.312 342.93 400.776 343.452C401.176 343.896 401.376 344.622 401.376 345.627V350H399.721V346.016C399.721 345.312 399.624 344.827 399.428 344.558C399.238 344.285 398.891 344.148 398.388 344.148C397.841 344.148 397.453 344.329 397.224 344.69C396.999 345.046 396.887 345.669 396.887 346.558V350H395.231V342.866ZM405.112 342.866V350H403.464V342.866H405.112ZM403.215 339.9C403.215 339.612 403.32 339.363 403.53 339.153C403.74 338.943 403.991 338.838 404.284 338.838C404.582 338.838 404.836 338.943 405.046 339.153C405.256 339.358 405.361 339.609 405.361 339.907C405.361 340.205 405.256 340.459 405.046 340.669C404.841 340.879 404.589 340.984 404.292 340.984C403.994 340.984 403.74 340.879 403.53 340.669C403.32 340.459 403.215 340.203 403.215 339.9ZM412.458 353.882V349.202C411.804 349.871 411.057 350.205 410.217 350.205C409.255 350.205 408.457 349.851 407.822 349.143C407.182 348.43 406.862 347.539 406.862 346.47C406.862 345.386 407.182 344.48 407.822 343.752C408.466 343.03 409.274 342.668 410.246 342.668C411.071 342.668 411.809 342.993 412.458 343.643V342.866H414.113V353.882H412.458ZM408.547 346.396C408.547 347.085 408.732 347.644 409.104 348.074C409.475 348.513 409.946 348.733 410.517 348.733C411.123 348.733 411.613 348.523 411.989 348.103C412.37 347.678 412.561 347.126 412.561 346.448C412.561 345.779 412.373 345.227 411.997 344.792C411.621 344.368 411.132 344.155 410.532 344.155C409.965 344.155 409.492 344.37 409.111 344.8C408.735 345.234 408.547 345.767 408.547 346.396ZM418.017 342.866V346.96C418.017 348.142 418.483 348.733 419.416 348.733C420.349 348.733 420.815 348.142 420.815 346.96V342.866H422.463V346.997C422.463 347.568 422.392 348.062 422.25 348.477C422.114 348.848 421.877 349.182 421.54 349.48C420.983 349.963 420.275 350.205 419.416 350.205C418.562 350.205 417.856 349.963 417.299 349.48C416.958 349.182 416.716 348.848 416.574 348.477C416.438 348.145 416.369 347.651 416.369 346.997V342.866H418.017ZM431.04 346.821H425.927C425.971 347.407 426.162 347.874 426.499 348.22C426.835 348.562 427.268 348.733 427.795 348.733C428.205 348.733 428.544 348.635 428.813 348.44C429.077 348.245 429.377 347.883 429.714 347.356L431.105 348.132C430.891 348.499 430.664 348.813 430.424 349.077C430.185 349.336 429.929 349.551 429.655 349.722C429.382 349.888 429.086 350.01 428.769 350.088C428.452 350.166 428.107 350.205 427.736 350.205C426.672 350.205 425.817 349.863 425.173 349.18C424.528 348.491 424.206 347.578 424.206 346.44C424.206 345.312 424.519 344.399 425.144 343.701C425.773 343.013 426.608 342.668 427.648 342.668C428.698 342.668 429.528 343.003 430.139 343.672C430.744 344.336 431.047 345.256 431.047 346.433L431.04 346.821ZM429.348 345.474C429.118 344.595 428.564 344.155 427.685 344.155C427.485 344.155 427.297 344.187 427.121 344.25C426.945 344.309 426.784 344.397 426.638 344.514C426.496 344.626 426.374 344.763 426.271 344.924C426.169 345.085 426.091 345.269 426.037 345.474H429.348ZM438.364 338.691L441.491 346.528L444.663 338.691H446.53L441.455 350.85L436.496 338.691H438.364ZM449.423 342.866V350H447.775V342.866H449.423ZM447.526 339.9C447.526 339.612 447.631 339.363 447.841 339.153C448.051 338.943 448.303 338.838 448.596 338.838C448.894 338.838 449.147 338.943 449.357 339.153C449.567 339.358 449.672 339.609 449.672 339.907C449.672 340.205 449.567 340.459 449.357 340.669C449.152 340.879 448.901 340.984 448.603 340.984C448.305 340.984 448.051 340.879 447.841 340.669C447.631 340.459 447.526 340.203 447.526 339.9ZM455.656 344.082L454.294 344.807C454.079 344.368 453.813 344.148 453.496 344.148C453.344 344.148 453.215 344.199 453.107 344.302C453 344.399 452.946 344.526 452.946 344.683C452.946 344.956 453.264 345.227 453.898 345.496C454.772 345.872 455.361 346.218 455.664 346.536C455.966 346.853 456.118 347.28 456.118 347.817C456.118 348.506 455.864 349.082 455.356 349.546C454.863 349.985 454.267 350.205 453.569 350.205C452.373 350.205 451.525 349.622 451.027 348.455L452.434 347.803C452.629 348.145 452.778 348.362 452.88 348.455C453.081 348.64 453.32 348.733 453.598 348.733C454.155 348.733 454.433 348.479 454.433 347.971C454.433 347.678 454.218 347.405 453.789 347.151C453.623 347.068 453.457 346.987 453.291 346.909C453.125 346.831 452.956 346.75 452.785 346.667C452.307 346.433 451.97 346.199 451.774 345.964C451.525 345.667 451.401 345.283 451.401 344.814C451.401 344.194 451.613 343.682 452.038 343.276C452.473 342.871 453 342.668 453.62 342.668C454.533 342.668 455.212 343.14 455.656 344.082ZM459.252 342.866V350H457.604V342.866H459.252ZM457.355 339.9C457.355 339.612 457.46 339.363 457.67 339.153C457.88 338.943 458.132 338.838 458.425 338.838C458.723 338.838 458.977 338.943 459.187 339.153C459.396 339.358 459.501 339.609 459.501 339.907C459.501 340.205 459.396 340.459 459.187 340.669C458.981 340.879 458.73 340.984 458.432 340.984C458.134 340.984 457.88 340.879 457.67 340.669C457.46 340.459 457.355 340.203 457.355 339.9ZM463.039 344.404V350H461.391V344.404H460.688V342.866H461.391V340.251H463.039V342.866H464.321V344.404H463.039ZM465.207 346.382C465.207 345.352 465.576 344.475 466.313 343.752C467.05 343.03 467.949 342.668 469.008 342.668C470.073 342.668 470.976 343.032 471.718 343.76C472.451 344.487 472.817 345.381 472.817 346.44C472.817 347.51 472.448 348.406 471.711 349.128C470.969 349.846 470.058 350.205 468.979 350.205C467.91 350.205 467.014 349.839 466.291 349.106C465.568 348.384 465.207 347.476 465.207 346.382ZM466.892 346.411C466.892 347.124 467.082 347.688 467.463 348.103C467.854 348.523 468.369 348.733 469.008 348.733C469.653 348.733 470.168 348.525 470.554 348.11C470.939 347.695 471.132 347.141 471.132 346.448C471.132 345.754 470.939 345.2 470.554 344.785C470.163 344.365 469.648 344.155 469.008 344.155C468.378 344.155 467.868 344.365 467.478 344.785C467.087 345.205 466.892 345.747 466.892 346.411ZM474.567 342.866H476.215V343.503C476.518 343.186 476.787 342.969 477.021 342.852C477.26 342.729 477.543 342.668 477.871 342.668C478.305 342.668 478.759 342.81 479.233 343.093L478.479 344.602C478.166 344.377 477.861 344.265 477.563 344.265C476.665 344.265 476.215 344.944 476.215 346.301V350H474.567V342.866ZM484.323 344.082L482.961 344.807C482.746 344.368 482.48 344.148 482.163 344.148C482.011 344.148 481.882 344.199 481.774 344.302C481.667 344.399 481.613 344.526 481.613 344.683C481.613 344.956 481.931 345.227 482.565 345.496C483.439 345.872 484.028 346.218 484.331 346.536C484.633 346.853 484.785 347.28 484.785 347.817C484.785 348.506 484.531 349.082 484.023 349.546C483.53 349.985 482.934 350.205 482.236 350.205C481.04 350.205 480.192 349.622 479.694 348.455L481.101 347.803C481.296 348.145 481.445 348.362 481.547 348.455C481.748 348.64 481.987 348.733 482.265 348.733C482.822 348.733 483.1 348.479 483.1 347.971C483.1 347.678 482.885 347.405 482.456 347.151C482.29 347.068 482.124 346.987 481.958 346.909C481.792 346.831 481.623 346.75 481.452 346.667C480.974 346.433 480.637 346.199 480.441 345.964C480.192 345.667 480.068 345.283 480.068 344.814C480.068 344.194 480.28 343.682 480.705 343.276C481.14 342.871 481.667 342.668 482.287 342.668C483.2 342.668 483.879 343.14 484.323 344.082Z" fill="#878F9B"/>
<path fill-rule="evenodd" clip-rule="evenodd" d="M370 349.912C372.761 349.912 375 347.654 375 344.868C375 342.083 372.761 339.824 370 339.824C367.239 339.824 365 342.083 365 344.868C365 347.654 367.239 349.912 370 349.912Z" fill="#456AEB" fill-opacity="0.3"/>
</svg>
